<?xml version="1.0" standalone="no"?>
<!DOCTYPE svg PUBLIC "-//W3C//DTD SVG 20010904//EN"
 "http://www.w3.org/TR/2001/REC-SVG-20010904/DTD/svg10.dtd">
<svg version="1.0" xmlns="http://www.w3.org/2000/svg"
 width="1200.000000pt" height="1200.000000pt" viewBox="0 0 1200.000000 1200.000000"
 preserveAspectRatio="xMidYMid meet">
<metadata>
Created by potrace 1.14, written by Peter Selinger 2001-2017
</metadata>
<g transform="translate(0.000000,1200.000000) scale(0.100000,-0.100000)"
fill="#000000" stroke="none">
<path d="M1370 11714 c0 -217 3 -283 13 -286 6 -2 177 -4 380 -3 l367 0 0
-507 0 -508 350 0 350 0 0 -222 0 -223 -538 0 -537 0 -3 -1936 -2 -1936 181 1
c99 1 185 -1 190 -4 4 -3 10 -118 11 -255 l3 -250 -382 0 -383 1 0 -1238 0
-1238 413 0 412 0 0 -307 c-1 -170 0 -313 2 -318 2 -7 115 -10 318 -10 l315 0
0 -317 0 -318 318 0 317 0 0 -315 c0 -205 3 -315 10 -316 5 -1 177 -2 380 -3
l370 -1 0 -603 0 -602 318 0 317 0 0 315 c0 173 3 315 8 316 4 1 147 2 317 3
l311 1 -1 -315 0 -315 572 -3 572 -2 -2 317 -2 318 345 -1 c190 -1 347 -2 350
-3 3 -1 6 -142 6 -313 l0 -313 317 -3 317 -2 0 603 0 603 348 0 347 0 3 317 2
317 318 0 317 0 0 318 -1 317 318 0 318 0 0 317 0 318 315 0 c173 0 315 3 316
8 1 4 2 703 3 1555 l1 1547 -191 0 -191 0 -1 1883 c0 1035 -1 1892 -1 1905
l-1 22 -475 0 -475 0 0 253 0 253 333 -1 c182 0 340 1 350 4 16 3 17 30 17
438 -1 240 2 438 5 442 4 3 156 7 338 7 183 1 337 2 343 3 8 1 11 84 10 283
l-1 283 -697 3 -698 3 0 -226 0 -225 -592 0 c-326 1 -640 1 -698 1 l-105 -1 0
-252 0 -253 -1778 0 -1777 0 0 252 c0 234 -1 253 -17 253 -10 1 -339 1 -730 0
l-713 0 0 223 0 223 -730 0 -730 0 0 -282z m2730 -1051 l0 -253 380 0 380 0 2
-222 3 -223 278 0 c154 0 281 3 283 7 2 3 5 103 6 222 l1 216 603 0 602 0 0
-214 c0 -117 2 -218 5 -222 3 -5 132 -9 286 -8 l281 0 0 -318 0 -318 665 0
c366 0 665 -3 666 -7 1 -10 1 -500 0 -535 l-1 -28 -665 0 -665 0 0 -318 0
-318 -177 1 c-98 1 -184 -1 -190 -3 -10 -3 -13 -89 -13 -381 l0 -378 188 1
187 0 3 -287 2 -287 668 0 667 0 -2 -272 c-1 -150 -2 -279 -2 -285 -1 -10
-208 -13 -983 -15 l-983 -3 0 -315 0 -315 -540 0 -540 1 0 317 0 317 -952 0
-953 0 0 285 0 285 635 0 635 0 0 288 0 287 160 -1 160 -1 -2 381 -3 381 -155
0 -155 0 -3 318 -2 317 -698 -2 -697 -3 0 -315 0 -315 -190 0 -190 0 0 -380 0
-380 205 -1 c113 -1 213 -2 223 -3 16 -1 17 -18 15 -253 l-3 -253 -537 0 -538
0 0 1237 0 1238 1205 0 1205 0 0 318 0 318 -675 -1 c-371 0 -671 2 -665 3 6 2
10 86 10 223 l0 219 -350 0 -350 0 0 253 0 254 635 0 635 0 0 -254z m5138 63
l-3 -190 -345 -1 -345 0 -2 -265 c-1 -146 -2 -274 -2 -285 -1 -20 -8 -20 -663
-20 l-663 1 -3 222 -2 222 380 0 380 0 0 253 0 254 635 0 635 0 -2 -191z m2
-2346 c0 -355 1 -380 18 -381 9 0 66 -2 127 -2 l110 -2 0 -570 0 -570 -465 1
c-256 1 -470 2 -476 3 -8 1 -11 72 -10 253 l1 252 221 0 221 -1 -1 381 -1 381
-220 0 -220 0 -2 305 c-1 168 0 311 2 318 3 9 82 12 350 12 l345 -1 0 -379z
m-4824 -636 l0 -380 -293 0 c-204 0 -290 3 -284 10 4 6 8 178 7 381 l-1 370
286 0 286 0 -1 -381z m3809 0 l0 -380 -317 0 -318 0 0 376 c0 207 2 379 4 381
3 2 145 4 318 4 l313 0 0 -381z m1649 -1826 c-1 -167 -2 -310 -3 -318 -1 -13
-46 -15 -343 -15 -310 1 -342 2 -347 17 -5 13 -6 538 -2 606 1 9 78 12 349 12
l347 0 -1 -302z m-4442 -651 l0 -317 603 0 603 0 1 278 c0 152 0 295 0 317 l1
40 1268 0 1267 0 2 -590 c1 -324 2 -596 2 -602 1 -10 81 -13 349 -15 l347 -3
0 -305 c0 -168 3 -309 7 -315 4 -7 -112 -10 -340 -9 -191 1 -351 2 -357 3 -6
1 -10 113 -9 316 l1 315 -317 0 -317 0 0 -309 c0 -170 -3 -313 -6 -318 -6 -9
-612 -11 -622 -2 -3 4 -6 147 -6 318 l1 311 -318 -2 -317 -3 -1 -315 -1 -315
318 0 318 0 0 -250 c0 -137 0 -280 0 -317 l1 -68 315 0 c245 0 315 3 316 13 0
6 1 149 2 317 l2 305 305 1 c168 0 310 -2 316 -4 8 -2 11 -94 11 -318 l0 -314
-317 0 -317 0 -1 -307 c0 -170 -1 -313 -1 -318 -1 -7 -110 -10 -316 -10 l-315
0 -1 -25 c0 -14 0 -156 0 -317 l1 -292 -310 0 c-170 0 -314 -2 -319 -5 -5 -3
-9 -124 -9 -268 0 -145 -1 -271 -1 -280 -1 -17 -65 -18 -1206 -18 l-1205 0 0
285 0 285 -107 1 c-60 0 -201 0 -315 -1 -192 0 -208 1 -209 17 -1 10 -2 153
-3 318 l-1 300 -317 0 -318 0 0 317 0 318 -314 0 c-291 0 -314 1 -317 18 -3 9
-4 152 -3 317 l0 300 317 0 317 0 0 317 0 318 -317 0 -318 0 0 -317 0 -318
-400 -1 c-220 0 -406 2 -412 4 -10 3 -13 82 -13 351 l0 346 380 -1 380 -1 1
31 c1 17 2 272 3 566 2 294 4 537 4 540 1 3 572 5 1269 5 l1266 0 -1 -318z"/>
<path d="M5432 9648 l0 -318 604 0 603 0 0 -242 c0 -134 0 -262 0 -285 l1 -43
285 0 285 0 0 285 0 285 -285 0 -285 0 -1 43 c0 23 0 165 0 315 0 149 -3 273
-7 273 -4 1 -276 2 -604 3 l-597 2 1 -318z"/>
<path d="M4860 9045 l0 -285 285 0 285 0 1 -22 c0 -13 0 -170 0 -351 l0 -327
317 2 317 3 2 348 c1 319 0 348 -15 346 -9 -1 -153 -1 -320 0 l-303 1 2 283 2
282 -287 3 -286 2 0 -285z"/>
<path d="M5441 7421 c-5 -4 -9 -160 -10 -348 l-2 -342 33 -3 c29 -3 33 -6 32
-30 -1 -16 3 -29 7 -29 5 -1 19 -2 32 -3 20 -1 22 -7 27 -66 5 -64 5 -65 35
-65 26 0 29 -3 30 -30 0 -27 3 -30 30 -30 23 0 30 -5 31 -20 1 -11 2 -26 3
-32 1 -7 14 -13 31 -13 27 0 30 -3 30 -30 0 -29 14 -37 53 -31 4 0 7 -13 7
-29 0 -17 6 -31 13 -32 6 0 17 -2 22 -2 22 -3 36 -19 33 -39 -2 -18 3 -23 30
-25 28 -3 32 -7 32 -33 0 -16 6 -30 13 -30 6 -1 17 -2 22 -4 6 -1 15 -3 21 -3
5 -1 10 -14 10 -29 -1 -27 0 -28 62 -29 l62 -2 0 34 c0 31 2 33 30 30 30 -3
34 1 32 42 -1 19 4 22 35 22 32 0 35 2 31 25 -6 29 4 38 41 40 23 1 26 5 23
33 -3 31 -2 32 32 32 35 0 36 1 31 30 -5 29 -4 30 30 30 33 0 35 2 35 34 0 33
2 34 30 31 28 -4 30 -2 30 30 0 19 3 34 8 34 4 -1 19 -1 33 0 24 1 25 3 24 56
-2 57 5 70 40 70 15 0 20 7 20 30 1 26 4 30 33 33 22 2 32 9 33 20 0 9 0 166
1 347 l1 330 -627 1 c-344 0 -630 -2 -635 -5z"/>
<path d="M4229 4363 c-3 -47 -4 -599 -2 -608 2 -7 114 -10 318 -10 l315 0 0
-317 0 -318 -315 0 c-245 0 -315 3 -316 13 -1 6 -2 149 -3 317 l-1 305 -315 0
-315 0 -3 -318 -2 -317 318 0 318 0 -1 -302 c0 -167 1 -310 3 -318 3 -13 45
-15 315 -15 l312 0 3 -318 2 -317 318 2 317 3 0 315 0 315 -317 0 -318 0 0
317 0 318 318 0 318 0 -1 318 0 317 -315 0 -315 0 -3 318 -2 317 -315 0 c-293
0 -315 -1 -316 -17z"/>
<path d="M6639 3738 c0 -5 0 -138 0 -298 0 -159 0 -299 0 -310 1 -20 8 -20
316 -20 l315 0 1 -32 c1 -18 1 -154 1 -303 0 -148 1 -277 4 -285 3 -13 47 -15
316 -15 l313 0 2 318 3 317 -318 0 -319 0 0 310 c0 171 -3 313 -7 318 -10 9
-626 9 -627 0z"/>
<path d="M6639 2455 c0 -28 0 -543 0 -582 l1 -33 315 0 315 0 1 23 c1 26 1
587 0 602 -1 7 -108 10 -316 10 -308 0 -315 0 -316 -20z"/>
</g>
</svg>
